<?xml version="1.0" encoding="UTF-8" standalone="no"?>
<svg
   xmlns:dc="http://purl.org/dc/elements/1.1/"
   xmlns:cc="http://creativecommons.org/ns#"
   xmlns:rdf="http://www.w3.org/1999/02/22-rdf-syntax-ns#"
   xmlns:svg="http://www.w3.org/2000/svg"
   xmlns="http://www.w3.org/2000/svg"
   viewBox="0 0 816 1056"
   height="1056"
   width="816"
   xml:space="preserve"
   id="svg2"
   version="1.1"><metadata
     id="metadata8"><rdf:RDF><cc:Work
         rdf:about=""><dc:format>image/svg+xml</dc:format><dc:type
           rdf:resource="http://purl.org/dc/dcmitype/StillImage" /></cc:Work></rdf:RDF></metadata><defs
     id="defs6"><clipPath
       id="clipPath18"
       clipPathUnits="userSpaceOnUse"><path
         id="path16"
         d="M 0,792 H 612 V 0 H 0 Z" /></clipPath></defs><g
     transform="matrix(1.3333333,0,0,-1.3333333,0,1056)"
     id="g10"><g
       id="g12"><g
         clip-path="url(#clipPath18)"
         id="g14"><g
           transform="translate(314.2324,591.1226)"
           id="g20"><path
             id="path22"
             style="fill:#373535;fill-opacity:1;fill-rule:nonzero;stroke:none"
             d="m 0,0 c -11.397,2.783 -23.341,3.611 -34.702,0.178 -5.452,-1.647 -10.578,-4.142 -15.295,-7.326 -3.699,-2.497 -7.27,-5.187 -10.829,-7.877 -7.885,-5.958 -15.825,-11.889 -23.528,-18.08 -4.82,-3.874 -9.519,-7.922 -13.847,-12.344 -2.943,-3.007 -5.807,-6.171 -8.143,-9.682 -3.209,-4.824 -5.298,-10.294 -7.629,-15.569 -4.419,-9.998 -9.526,-19.629 -14.941,-29.121 -3.135,-5.494 -6.333,-10.955 -9.323,-16.531 -2.486,-4.636 -4.895,-9.376 -6.601,-14.364 -1.12,-3.277 -2.099,-6.923 -1.643,-10.416 0.365,-2.796 1.459,-5.488 2.713,-7.992 3.597,-7.183 8.969,-13.523 14.764,-19.026 7.476,-7.099 16.142,-13.01 25.55,-17.241 11.451,-5.149 23.944,-8.32 36.211,-10.817 6.394,-1.3 12.834,-2.361 19.298,-3.248 6.085,-0.835 12.203,-1.63 18.337,-2.006 10.888,-0.666 22.368,0.104 32.284,5.046 10.519,5.244 16.749,15.126 22.538,24.934 2.986,5.061 5.723,10.681 4.585,16.713 -0.939,4.975 -4.129,9.932 -3.6,15.112 0.293,2.869 2.147,4.766 4.515,6.201 2.321,1.408 4.557,2.824 6.585,4.645 4.141,3.719 7.343,8.403 9.916,13.309 10.806,20.599 11.544,46.207 2.127,67.451 -2.334,5.265 -5.269,10.312 -9.056,14.67 -3.215,3.699 -7.174,6.675 -10.879,9.858 -6.29,5.405 -11.555,11.871 -18.011,17.098 C 8.021,-3.693 4.26,-1.094 0,0 c -0.633,0.162 -1.462,-0.082 -2.027,-0.366 -0.255,-0.128 -0.992,-0.606 -0.351,-0.77 4.354,-1.117 8.182,-3.907 11.594,-6.732 3.473,-2.876 6.662,-6.075 9.789,-9.319 2.471,-2.563 4.972,-5.008 7.674,-7.33 3.598,-3.091 7.449,-5.984 10.604,-9.545 7.506,-8.472 12.016,-19.737 14.197,-30.737 2.224,-11.211 2.002,-22.899 -0.684,-34.01 -2.559,-10.58 -7.288,-21.729 -15.247,-29.391 -2.091,-2.012 -4.41,-3.559 -6.886,-5.048 -2.079,-1.25 -4.063,-2.769 -4.919,-5.131 -1.658,-4.584 1.033,-9.702 2.356,-14.025 0.832,-2.717 1.348,-5.479 0.922,-8.322 -0.43,-2.879 -1.59,-5.602 -2.931,-8.165 -2.685,-5.132 -5.849,-10.198 -9.279,-14.864 -3.329,-4.528 -7.288,-8.589 -12.197,-11.396 -4.703,-2.688 -10.012,-4.134 -15.363,-4.801 -11.507,-1.433 -23.293,0.27 -34.688,1.894 -12.668,1.805 -25.26,4.307 -37.519,8.003 -5.714,1.723 -11.419,3.62 -16.834,6.146 -4.706,2.194 -9.212,4.812 -13.472,7.779 -7.487,5.214 -14.345,11.52 -19.887,18.785 -3.696,4.846 -7.535,10.65 -8.413,16.824 -0.493,3.469 0.469,7.049 1.583,10.309 1.637,4.787 3.927,9.344 6.301,13.801 5.868,11.022 12.488,21.623 18.17,32.748 3.528,6.908 6.533,14.027 9.744,21.08 1.054,2.315 2.18,4.601 3.517,6.767 1.946,3.152 4.35,5.978 6.869,8.684 7.987,8.581 17.372,15.686 26.675,22.757 6.93,5.266 13.753,10.684 20.869,15.699 4.261,3.004 8.726,5.634 13.667,7.368 5.513,1.935 11.362,2.708 17.191,2.568 5.611,-0.135 11.154,-1.067 16.597,-2.396 0.638,-0.156 1.457,0.078 2.027,0.365 C -0.102,-0.646 0.646,-0.158 0,0" /></g><g
           transform="translate(331.3291,524.396)"
           id="g24"><path
             id="path26"
             style="fill:#373535;fill-opacity:1;fill-rule:nonzero;stroke:none"
             d="m 0,0 c 2.705,1.455 5.997,1.109 8.898,0.544 1.595,-0.311 3.172,-0.561 4.171,-1.972 0.91,-1.284 1.139,-2.972 1.13,-4.509 -0.019,-3.172 -0.553,-6.428 -0.935,-9.574 -0.173,-1.429 -0.393,-2.944 -1.119,-4.212 -0.41,-0.714 -0.974,-1.293 -1.63,-1.782 -0.307,-0.229 -0.638,-0.429 -0.964,-0.627 -0.197,-0.12 -1.089,-0.424 -0.368,-0.343 0.318,-0.036 0.637,-0.071 0.957,-0.107 -1.041,0.566 -1.988,1.499 -2.884,2.268 -0.902,0.774 -1.777,1.583 -2.594,2.446 -1.718,1.814 -3.171,3.872 -3.993,6.247 -1.355,3.917 -1.618,8.352 -0.121,12.241 0.368,0.957 -2.525,0.618 -2.9,-0.356 -1.557,-4.048 -1.275,-8.812 0.195,-12.867 0.874,-2.411 2.375,-4.555 4.13,-6.406 0.818,-0.863 1.692,-1.672 2.593,-2.446 0.93,-0.798 2.007,-1.936 3.121,-2.462 1.031,-0.486 2.09,-0.005 3.005,0.513 1.083,0.613 2.169,1.297 3.048,2.186 1.778,1.797 2.221,4.223 2.489,6.641 0.315,2.847 0.758,5.725 0.86,8.589 0.084,2.402 -0.279,5.164 -2.326,6.73 -1.104,0.845 -2.567,1.09 -3.898,1.357 C 9.503,2.371 8.12,2.572 6.731,2.651 3.747,2.821 0.838,2.304 -1.804,0.883 -2.287,0.624 -2.572,0.088 -2.053,-0.267 -1.499,-0.645 -0.505,-0.271 0,0" /></g><g
           transform="translate(209.2798,538.2046)"
           id="g28"><path
             id="path30"
             style="fill:#373535;fill-opacity:1;fill-rule:nonzero;stroke:none"
             d="m 0,0 c -3.27,-5.707 -5.093,-12.139 -6.903,-18.421 -2,-6.942 -3.858,-13.987 -6.807,-20.603 -1.559,-3.496 -2.65,-6.944 -2.872,-10.792 -0.188,-3.27 0.116,-6.55 0.774,-9.754 0.981,-4.774 2.588,-9.723 4.585,-14.163 2.001,-4.448 4.79,-8.592 8.684,-11.593 3.625,-2.793 7.905,-4.466 12.323,-5.535 5.457,-1.32 11.104,-1.806 16.689,-2.215 8.177,-0.599 16.39,-0.406 24.555,0.271 7.014,0.582 13.984,1.555 20.936,2.631 4.924,0.762 9.873,1.706 14.851,2.036 0.835,0.056 1.672,0.078 2.509,0.055 0.567,-0.014 1.631,0.209 1.916,0.778 0.293,0.585 -0.249,0.788 -0.772,0.802 -4.248,0.112 -8.539,-0.664 -12.721,-1.305 -6.306,-0.966 -12.602,-1.983 -18.939,-2.724 -14.148,-1.654 -28.623,-2.008 -42.726,0.293 -4.583,0.748 -9.16,1.913 -13.221,4.23 -3.982,2.271 -7.17,5.692 -9.453,9.645 -2.42,4.192 -3.948,8.898 -5.304,13.529 -1.818,6.201 -2.599,12.876 -0.86,19.189 0.947,3.437 2.711,6.621 3.929,9.97 1.236,3.396 2.283,6.858 3.291,10.328 1.88,6.474 3.534,13.086 6.217,19.289 0.598,1.381 1.259,2.729 2.007,4.035 C 3.34,1.115 0.455,0.794 0,0" /></g><g
           transform="translate(220.6797,541.2349)"
           id="g32"><path
             id="path34"
             style="fill:#373535;fill-opacity:1;fill-rule:nonzero;stroke:none"
             d="m 0,0 c -1.912,-7.248 -3.911,-16.216 1.885,-22.314 2.513,-2.644 5.947,-3.312 9.401,-3.868 1.721,-0.276 3.477,-0.552 5.067,-1.305 1.497,-0.708 2.524,-2.286 4.301,-2.216 2.348,0.093 4.043,2.012 5.722,3.427 2.039,1.716 4.077,3.433 6.114,5.149 0.469,0.395 0.317,0.706 -0.226,0.844 -0.595,0.15 -1.586,-0.159 -2.049,-0.55 l -4.632,-3.9 c -0.74,-0.625 -1.481,-1.249 -2.223,-1.873 -0.37,-0.312 -0.74,-0.624 -1.111,-0.936 -0.185,-0.156 -0.365,-0.32 -0.556,-0.468 -0.106,-0.087 -0.212,-0.174 -0.318,-0.26 0.041,0.052 0.083,0.103 0.124,0.155 -0.603,0.3 -1.097,0.921 -1.675,1.285 -0.616,0.389 -1.277,0.706 -1.959,0.958 -1.409,0.519 -2.907,0.783 -4.384,1.023 -3.222,0.526 -6.375,1.041 -8.762,3.474 -2.162,2.204 -3.332,5.26 -3.687,8.292 -0.535,4.574 0.69,9.13 1.847,13.515 C 3.104,1.284 0.228,0.864 0,0" /></g><g
           transform="translate(241.2593,510.689)"
           id="g36"><path
             id="path38"
             style="fill:#373535;fill-opacity:1;fill-rule:nonzero;stroke:none"
             d="m 0,0 c 2.019,-1.063 3.959,-2.315 5.778,-3.693 2,-1.515 3.444,-3.208 4.849,-5.276 3.286,-4.836 6.026,-10.034 8.14,-15.486 1.022,-2.636 1.9,-5.327 2.631,-8.058 0.695,-2.599 1.144,-5.271 1.977,-7.831 0.804,-2.466 2.021,-4.735 3.973,-6.479 1.872,-1.673 4.256,-2.723 6.625,-3.479 6.48,-2.065 13.402,-3.149 20.132,-4.011 0.682,-0.086 1.611,0.217 1.881,0.913 0.26,0.672 -0.245,1.231 -0.91,1.316 -6.089,0.779 -12.239,1.803 -18.16,3.451 -2.394,0.666 -4.804,1.522 -6.779,3.073 -2.174,1.706 -3.343,4.166 -4.101,6.766 -0.761,2.604 -1.239,5.283 -1.97,7.897 -0.76,2.722 -1.67,5.403 -2.72,8.027 -2.111,5.272 -4.775,10.33 -7.954,15.035 -1.516,2.241 -3.1,4.123 -5.254,5.774 C 6.103,-0.501 3.913,0.858 1.646,2.053 0.382,2.719 -1.648,0.869 0,0" /></g><g
           transform="translate(204.7358,534.2388)"
           id="g40"><path
             id="path42"
             style="fill:#373535;fill-opacity:1;fill-rule:nonzero;stroke:none"
             d="m 0,0 c -3.91,-0.857 -7.834,-1.655 -11.774,-2.367 -3.683,-0.665 -7.477,-1.24 -11.23,-0.993 -3.771,0.248 -7.101,1.459 -10.351,3.348 -2.985,1.735 -6.215,3.485 -8.405,6.219 -0.482,-0.576 -0.964,-1.152 -1.447,-1.728 2.127,0.054 4.255,0.108 6.382,0.162 1.799,0.046 3.873,-0.145 5.546,0.653 1.588,0.757 1.935,2.134 2.739,3.55 0.869,1.53 2.288,2.661 3.639,3.747 3.355,2.699 6.721,5.382 10.081,8.073 3.164,2.533 6.284,5.168 9.706,7.352 3.355,2.141 7.082,3.549 10.752,5.043 3.683,1.499 7.239,3.244 10.737,5.133 6.901,3.725 13.657,7.906 21.104,10.483 8.649,2.993 17.89,3.954 26.972,2.846 0.668,-0.081 1.611,0.218 1.884,0.897 0.269,0.665 -0.247,1.173 -0.892,1.252 C 57.457,54.644 49.319,54.125 41.53,52.1 33.787,50.086 26.75,46.396 19.792,42.54 16.332,40.622 12.874,38.691 9.301,36.987 5.68,35.261 1.89,33.941 -1.755,32.271 -9.199,28.858 -15.38,23.127 -21.717,18.054 c -1.86,-1.49 -3.734,-2.964 -5.58,-4.471 -1.491,-1.218 -2.95,-2.53 -3.925,-4.212 -0.368,-0.636 -0.597,-1.828 -1.213,-2.259 -0.672,-0.471 -2.151,-0.252 -2.918,-0.272 -2.536,-0.064 -5.072,-0.129 -7.609,-0.194 -0.701,-0.018 -2.135,-0.869 -1.447,-1.729 2.327,-2.906 5.655,-4.781 8.826,-6.626 3.48,-2.026 7.097,-3.436 11.139,-3.767 4.056,-0.332 8.101,0.186 12.092,0.876 4.319,0.746 8.617,1.627 12.897,2.566 0.588,0.129 1.36,0.722 1.177,1.406 C 1.527,0.095 0.579,0.127 0,0" /></g><g
           transform="translate(339.9219,414.1938)"
           id="g44"><path
             id="path46"
             style="fill:#373535;fill-opacity:1;fill-rule:nonzero;stroke:none"
             d="m 0,0 c 1.772,2.443 4.507,3.502 7.449,2.822 1.58,-0.365 2.806,-1.199 4.048,-2.203 1.14,-0.922 2.316,-1.784 3.842,-1.801 1.484,-0.016 2.979,0.542 4.147,1.442 0.628,0.483 1.16,1.142 1.85,1.538 0.635,0.365 1.379,0.255 2.07,0.102 3.475,-0.769 5.432,-3.989 5.952,-7.31 0.603,-3.843 -0.543,-7.612 -1.524,-11.29 -0.988,-3.701 -1.647,-7.467 -1.783,-11.301 -0.263,-7.391 1.331,-14.911 5.207,-21.26 3.768,-6.173 9.443,-11.04 16.296,-13.432 0.535,-0.186 2.406,0.168 2.621,0.812 3.685,11.012 1.021,22.681 1.343,34 0.17,6.028 1.003,12.01 1.833,17.975 0.844,6.073 1.58,12.145 2.011,18.262 0.853,12.086 1.033,24.28 0.898,36.394 -0.032,2.947 -0.191,5.91 -0.818,8.797 -0.583,2.684 -1.559,5.258 -2.416,7.861 -0.847,2.575 -1.559,5.191 -1.707,7.91 -0.145,2.696 0.143,5.39 0.315,8.078 0.182,2.863 0.276,5.815 -0.539,8.599 -0.783,2.672 -2.452,4.859 -4.544,6.656 -4.53,3.89 -10.222,6.504 -15.987,7.937 -0.626,0.155 -1.461,-0.105 -2.023,-0.378 -0.248,-0.121 -0.994,-0.568 -0.362,-0.725 5.306,-1.319 10.378,-3.684 14.703,-7.048 1.981,-1.542 3.75,-3.368 4.765,-5.697 1.041,-2.385 1.252,-5.016 1.205,-7.589 -0.1,-5.271 -0.987,-10.351 0.381,-15.548 0.698,-2.653 1.704,-5.21 2.51,-7.83 0.812,-2.638 1.299,-5.316 1.486,-8.07 0.403,-5.901 0.123,-11.892 0.049,-17.802 -0.075,-6.055 -0.219,-12.111 -0.552,-18.158 -0.33,-5.96 -0.861,-11.902 -1.642,-17.82 -0.779,-5.896 -1.721,-11.777 -2.194,-17.709 -0.515,-6.46 -0.104,-12.851 0.208,-19.307 0.312,-6.495 0.307,-13.075 -1.779,-19.309 0.874,0.271 1.747,0.541 2.621,0.812 -6.794,2.372 -12.449,7.423 -16.073,13.587 -4.09,6.957 -5.478,15.228 -4.766,23.207 0.385,4.332 1.655,8.382 2.623,12.595 0.815,3.553 1.196,7.456 -0.475,10.835 C 29.818,1.528 26.933,3.301 23.695,3.183 22.062,3.124 20.357,2.662 18.983,1.761 18.363,1.354 17.845,0.833 17.279,0.357 17.08,0.189 16.873,-0.008 16.645,-0.13 16.943,0.029 16.948,-0.166 16.81,0.02 16.66,0.218 15.67,0.523 15.415,0.694 13.895,1.712 12.697,2.962 10.938,3.595 9.382,4.155 7.696,4.298 6.055,4.136 2.631,3.797 -0.798,2.315 -2.855,-0.521 -3.157,-0.938 -1.797,-0.793 -1.702,-0.777 -1.147,-0.682 -0.354,-0.487 0,0" /></g><g
           transform="translate(265.6484,575.0317)"
           id="g48"><path
             id="path50"
             style="fill:#373535;fill-opacity:1;fill-rule:nonzero;stroke:none"
             d="m 0,0 c 1.408,-1.546 2.688,-2.822 4.608,-3.748 2.038,-0.982 4.252,-1.543 6.502,-1.747 4.964,-0.451 10.275,0.714 14.898,2.489 5.168,1.985 -0.195,8.148 -2.467,10.235 -3.465,3.184 -8.117,4.587 -12.691,3.017 C 6.155,8.633 3.453,4.408 0.128,1.012 -0.349,0.524 -0.103,-0.094 0.483,-0.313 c 0.679,-0.255 1.563,0.052 2.05,0.548 2.164,2.212 4.002,4.948 6.484,6.815 3.075,2.313 7.248,2.391 10.394,0.137 1.521,-1.09 2.862,-2.48 4.017,-3.946 0.667,-0.847 2.834,-3.822 1.326,-4.632 -0.861,-0.463 -2.024,-0.641 -2.967,-0.904 -0.995,-0.277 -1.997,-0.528 -3.01,-0.733 -1.973,-0.4 -4.011,-0.621 -6.024,-0.501 -1.994,0.119 -3.98,0.531 -5.805,1.358 -1.79,0.81 -2.991,1.995 -4.287,3.418 C 1.822,2.169 -0.936,1.028 0,0" /></g><g
           transform="translate(246.9429,549.7798)"
           id="g52"><path
             id="path54"
             style="fill:#373535;fill-opacity:1;fill-rule:nonzero;stroke:none"
             d="m 0,0 c -0.88,-4.247 -1.29,-8.584 -1.14,-12.921 0.118,-3.416 0.603,-6.901 2.054,-10.027 1.475,-3.176 3.82,-5.522 7.011,-6.976 3.473,-1.582 7.464,-2.554 11.243,-3.02 4.368,-0.54 8.845,-0.15 12.811,1.867 0.48,0.244 1.164,0.952 0.676,1.522 -1.607,1.876 -3.049,3.882 -4.285,6.022 -1.259,2.18 -2.523,4.594 -2.926,7.107 -0.289,1.804 0.156,4.904 2.433,5.295 1.969,0.339 2.797,-2.344 2.91,-3.819 0.175,-2.288 -0.785,-4.483 -1.066,-6.725 -0.271,-2.161 0.146,-4.247 1.418,-6.036 1.164,-1.639 2.821,-2.902 4.488,-3.992 1.724,-1.126 3.643,-2.388 5.567,-0.847 0.795,0.636 1.249,1.602 1.711,2.482 0.623,1.186 1.217,2.386 1.783,3.599 1.057,2.263 2.143,4.588 2.779,7.01 1.175,4.467 -0.519,9.323 -2.454,13.348 -3.621,7.532 -10.112,13.93 -17.96,16.963 -2.609,1.007 -5.343,1.417 -8.111,0.924 C 16.229,11.293 13.716,10.093 11.313,8.787 7.371,6.644 2.712,4.169 1.273,-0.412 1.158,-0.776 1.156,-1.22 1.548,-1.438 c 2.136,-1.188 7.29,-3.097 8.447,0.326 0.477,1.413 -0.212,2.884 1.058,4.033 1.239,1.123 2.929,0.504 3.947,-0.61 1.157,-1.266 1.415,-3.061 0.958,-4.679 -0.229,-0.807 -0.645,-1.698 -1.275,-2.28 -0.648,-0.6 -1.439,-0.633 -2.289,-0.607 -3.576,0.107 -6.927,1.703 -9.509,4.125 -0.96,0.9 -3.462,-0.538 -2.227,-1.697 3.098,-2.905 7.268,-4.574 11.519,-4.599 2.151,-0.012 4.103,0.691 5.415,2.459 1.163,1.569 1.723,3.556 1.452,5.497 C 18.501,4.417 14.215,6.777 10.628,5.209 8.962,4.48 7.542,2.997 7.26,1.152 7.191,0.699 7.238,0.243 7.221,-0.212 7.22,-0.435 7.203,-0.657 7.169,-0.877 c 0.423,0.027 0.382,0.051 -0.124,0.07 -1.164,0.269 -2.207,0.474 -3.27,1.065 0.092,-0.341 0.183,-0.684 0.275,-1.026 1.237,3.938 5.166,5.956 8.559,7.8 2.033,1.106 4.158,2.213 6.456,2.634 2.484,0.456 4.893,-0.162 7.17,-1.149 7.448,-3.233 13.539,-9.647 16.652,-17.117 0.797,-1.911 1.443,-3.917 1.821,-5.956 0.49,-2.645 -0.022,-4.985 -1.008,-7.451 -0.934,-2.336 -1.993,-4.626 -3.137,-6.866 -0.286,-0.558 -0.557,-1.135 -0.879,-1.673 -0.078,-0.13 -0.29,-0.601 -0.426,-0.631 0.22,0.048 0.059,0.257 -0.022,0.306 -0.882,0.536 -1.756,1.086 -2.589,1.695 -1.529,1.115 -3.033,2.495 -3.699,4.317 -0.838,2.291 -0.041,4.68 0.448,6.953 0.693,3.224 0.395,7.79 -3.457,8.814 -2.064,0.548 -4.237,-0.327 -5.692,-1.807 -1.663,-1.692 -2.072,-4.022 -1.7,-6.303 0.405,-2.485 1.642,-4.87 2.852,-7.051 1.306,-2.353 2.858,-4.549 4.607,-6.592 l 0.677,1.522 c -4.146,-2.108 -8.836,-1.927 -13.285,-1.017 -4.048,0.827 -8.895,1.999 -11.695,5.257 -2.511,2.921 -3.464,6.862 -3.8,10.617 C 1.467,-9.584 1.947,-4.578 2.939,0.208 3.24,1.659 0.274,1.32 0,0" /></g><g
           transform="translate(272.1504,573.4648)"
           id="g56"><path
             id="path58"
             style="fill:#373535;fill-opacity:1;fill-rule:nonzero;stroke:none"
             d="M 0,0 C 1.458,1.164 2.673,2.535 3.91,3.925 4.428,4.507 5.004,5.361 5.713,5.723 6.345,6.046 7.406,5.86 8.102,5.825 9.035,5.778 9.973,5.68 10.81,5.232 11.605,4.806 12.246,4.125 12.874,3.491 13.568,2.79 14.397,2.072 14.952,1.25 15.44,0.525 15.54,-0.354 15.63,-1.201 c 0.066,-0.623 2.986,-0.056 2.898,0.776 -0.109,1.021 -0.275,1.959 -0.924,2.788 -0.733,0.936 -1.629,1.785 -2.48,2.615 -0.806,0.786 -1.67,1.437 -2.763,1.759 -1.07,0.317 -2.22,0.349 -3.328,0.375 C 6.718,7.167 4.385,6.814 2.62,5.193 0.898,3.611 -0.398,1.625 -2.238,0.155 -2.671,-0.191 -2.612,-0.474 -2.049,-0.549 -1.445,-0.63 -0.483,-0.386 0,0" /></g><g
           transform="translate(332.4277,517.9199)"
           id="g60"><path
             id="path62"
             style="fill:#373535;fill-opacity:1;fill-rule:nonzero;stroke:none"
             d="m 0,0 c 0.312,2.458 3.354,3.897 5.568,3.958 1.345,0.038 2.72,-0.225 3.968,-0.722 0.621,-0.247 1.336,-0.546 1.86,-0.969 0.506,-0.41 0.722,-0.997 0.938,-1.589 0.4,-1.095 3.278,-0.263 2.898,0.777 -0.3,0.822 -0.64,1.585 -1.347,2.133 -0.726,0.563 -1.59,0.95 -2.444,1.273 C 9.592,5.561 7.623,5.832 5.652,5.69 3.63,5.545 1.701,4.836 0.046,3.672 -1.326,2.707 -2.686,1.426 -2.907,-0.324 -3.064,-1.564 -0.136,-1.073 0,0" /></g><g
           transform="translate(216.8013,517.9751)"
           id="g64"><path
             id="path66"
             style="fill:#373535;fill-opacity:1;fill-rule:nonzero;stroke:none"
             d="m 0,0 c 0.808,-8.497 -7.916,-13.762 -10.254,-21.232 -2.319,-7.409 3.681,-14.715 8.855,-19.31 5.782,-5.135 12.77,-9.061 19.806,-12.193 3.758,-1.672 7.632,-2.964 11.516,-4.298 3.896,-1.339 7.439,-3.35 11.256,-4.848 4.146,-1.628 8.65,-2.065 13.071,-1.946 3.861,0.103 8.254,0.368 11.065,3.365 0.471,0.503 0.227,1.141 -0.368,1.373 -0.679,0.265 -1.57,-0.038 -2.05,-0.549 -2.172,-2.317 -6.371,-2.106 -9.281,-2.125 -3.891,-0.027 -7.777,0.544 -11.378,2.058 -3.507,1.476 -6.805,3.271 -10.415,4.518 -3.67,1.269 -7.344,2.468 -10.911,4.013 -6.73,2.916 -13.334,6.638 -18.982,11.347 -4.992,4.16 -11.474,11.32 -9.382,18.402 1.201,4.067 4.371,7.335 6.7,10.776 2.311,3.416 4.05,7.214 3.649,11.425 C 2.775,2.067 -0.131,1.374 0,0" /></g><g
           transform="translate(217.4243,504.6426)"
           id="g68"><path
             id="path70"
             style="fill:#373535;fill-opacity:1;fill-rule:nonzero;stroke:none"
             d="M 0,0 C 1.602,2.612 3.378,5.102 5.347,7.45 4.467,7.505 3.587,7.56 2.707,7.615 2.212,3.121 1.274,-1.231 0.175,-5.609 c -0.956,-3.813 2.069,-7.259 4.856,-9.504 3.435,-2.768 7.271,-5.104 10.911,-7.592 1.887,-1.289 3.773,-2.577 5.66,-3.866 1.581,-1.08 3.153,-2.426 5.164,-2.434 2.214,-0.009 4.051,1.448 5.99,2.312 2.018,0.899 4.142,1.487 6.273,2.049 -0.529,0.308 -1.059,0.615 -1.588,0.923 -1.366,-1.908 -2.298,-4.098 -3.717,-5.969 -0.765,-1.009 -1.82,-1.566 -2.658,-2.465 -0.674,-0.723 -0.706,-1.622 0.053,-2.28 0.92,-0.799 2.428,-1.078 3.547,-1.487 1.487,-0.544 2.974,-1.089 4.46,-1.633 2.685,-0.983 5.53,-2.424 8.462,-1.937 0.551,0.091 1.55,0.371 1.626,1.061 0.074,0.66 -0.794,0.839 -1.287,0.757 -2.395,-0.397 -5.104,1.131 -7.303,1.936 -1.252,0.458 -2.504,0.917 -3.756,1.375 -0.626,0.229 -1.252,0.457 -1.878,0.687 -0.289,0.107 -1.231,0.274 -1.371,0.611 -0.218,0.526 1.285,1.411 1.714,1.856 0.66,0.683 1.232,1.461 1.75,2.256 1.079,1.657 1.933,3.448 3.086,5.058 0.676,0.944 -1.119,1.047 -1.588,0.923 -3.451,-0.91 -6.617,-2.076 -9.783,-3.722 -0.92,-0.479 -1.515,-0.557 -2.444,-0.021 -0.858,0.495 -1.659,1.1 -2.476,1.658 -1.684,1.151 -3.369,2.302 -5.053,3.452 -3.37,2.303 -6.802,4.536 -10.109,6.93 -2.616,1.895 -6.524,5.311 -5.733,8.946 0.49,2.251 1.151,4.458 1.593,6.724 C 5.023,3.288 5.365,5.597 5.62,7.919 5.759,9.176 3.435,8.625 2.981,8.083 0.887,5.585 -1.024,2.952 -2.729,0.173 -3.493,-1.073 -0.566,-0.922 0,0" /></g></g></g></g></svg>